<?xml version="1.0" encoding="utf-8"?>
<!-- Generator: Adobe Illustrator 16.0.0, SVG Export Plug-In . SVG Version: 6.00 Build 0)  -->
<!DOCTYPE svg PUBLIC "-//W3C//DTD SVG 1.1//EN" "http://www.w3.org/Graphics/SVG/1.1/DTD/svg11.dtd">
<svg version="1.1" id="Layer_1" xmlns="http://www.w3.org/2000/svg" xmlns:xlink="http://www.w3.org/1999/xlink" x="0px" y="0px"
	 width="124px" height="124px" viewBox="0 0 124 124" enable-background="new 0 0 124 124" xml:space="preserve">
<g id="Layer_1_1_" display="none">
	<g display="inline">
		<path fill="none" stroke="#555555" stroke-width="4" stroke-linecap="round" stroke-miterlimit="10" d="M34.99,97.111
			c0,0-21.095,3.088-27.783,19.037c0,0,9.775,7.203,24.695,0c0,0,7.866,2.933,31.642,3.271"/>
		<path fill="none" stroke="#555555" stroke-width="4" stroke-linecap="round" stroke-miterlimit="10" d="M89.012,97.111
			c0,0,21.094,3.088,27.781,19.037c0,0-9.773,7.203-24.695,0c0,0-7.865,2.933-31.641,3.271"/>
		<path fill="none" stroke="#555555" stroke-width="4" stroke-miterlimit="10" d="M28.623,46.05c0,0,0.122,48.772-9.839,57.163"/>
		<path fill="none" stroke="#555555" stroke-width="4" stroke-miterlimit="10" d="M94.428,44.006c0,0-0.137,50.237,9.825,58.628"/>
		<path fill="none" stroke="#555555" stroke-width="4" stroke-miterlimit="10" d="M100.548,28.396
			c-2.315-4.727-8.296-7.042-16.208-2.604c-12.799,7.18-34.13,7.239-47.035,0c-7.91-4.437-13.892-2.123-16.207,2.604
			s-0.579,16.11,17.364,20.355c15.331,3.626,29.456,4.196,44.722,0C101.126,44.506,102.863,33.123,100.548,28.396z"/>
		<path fill="none" stroke="#555555" stroke-width="4" stroke-linecap="round" stroke-miterlimit="10" d="M33.832,24.221
			c0,0-0.128-10.713,12.22-8.397c0,0,2.058,0.514,3.343-2.573c1.287-3.087,3.344-4.63,4.374-4.63c1.028,0,3.859,0,7.46-1.286
			c3.601-1.287,5.145-5.402,9.518-1.287c4.374,4.116,4.116,8.156,7.46,8.194c3.345,0.038,5.402-2.02,5.402-2.02
			s9.342-1.799,8.313,10.548"/>
	</g>
</g>
<g id="Layer_1_copy">
	<g>
		<g>
			<path fill="#555555" d="M63.545,121.419c-0.01,0-0.02,0-0.029,0c-19.897-0.283-28.854-2.372-31.469-3.128
				c-15.418,7.068-25.595-0.214-26.026-0.532l-1.266-0.934l0.608-1.45c7.044-16.798,28.43-20.109,29.337-20.241
				c1.094-0.163,2.106,0.597,2.267,1.688c0.161,1.092-0.594,2.107-1.686,2.27c-0.193,0.028-18.634,2.911-25.497,16.258
				c3,1.506,10.645,4.116,21.248-1l0.769-0.371l0.8,0.297c0.069,0.025,8.023,2.818,30.971,3.146
				c1.104,0.017,1.986,0.925,1.972,2.028C65.527,120.542,64.637,121.419,63.545,121.419z"/>
		</g>
		<g>
			<path fill="#555555" d="M60.456,121.419c-1.091,0-1.984-0.877-2-1.972c-0.016-1.104,0.867-2.014,1.972-2.028
				c22.948-0.326,30.902-3.119,30.979-3.147l0.793-0.287l0.767,0.363c10.547,5.092,18.235,2.484,21.245,0.992
				c-6.879-13.376-25.298-16.221-25.489-16.249c-1.094-0.159-1.85-1.175-1.688-2.269c0.159-1.094,1.176-1.85,2.269-1.688
				c0.906,0.132,22.293,3.443,29.336,20.241l0.607,1.45l-1.266,0.934c-0.433,0.318-10.604,7.603-26.026,0.532
				c-2.614,0.756-11.57,2.845-31.468,3.128C60.475,121.419,60.465,121.419,60.456,121.419z"/>
		</g>
		<g>
			<path fill="#555555" d="M20.072,104.742l-2.577-3.059c7.586-6.392,9.161-42.323,9.128-55.628l4-0.01
				C30.635,51.133,30.447,96.003,20.072,104.742z"/>
		</g>
		<g>
			<path fill="#555555" d="M102.965,104.163C92.588,95.424,92.413,49.238,92.428,44l4,0.011c-0.035,13.714,1.53,50.706,9.113,57.093
				L102.965,104.163z"/>
		</g>
		<g>
			<path fill="#555555" d="M61.65,53.688c-0.001,0-0.001,0-0.003,0c-7.404,0-15.138-0.979-23.646-2.991
				c-11.599-2.744-16.352-8.224-18.297-12.339c-2.069-4.376-1.564-8.47-0.403-10.842c1.87-3.818,5.623-6.097,10.039-6.097
				c2.825,0,5.833,0.884,8.942,2.628c5.923,3.322,13.923,5.152,22.527,5.151c8.498,0,16.716-1.877,22.55-5.151
				c3.109-1.744,6.119-2.628,8.943-2.628c4.416,0,8.17,2.279,10.039,6.097c1.162,2.372,1.666,6.465-0.402,10.842
				c-1.943,4.114-6.696,9.595-18.297,12.339C76.348,52.704,69.13,53.688,61.65,53.688z M29.341,25.419
				c-2.939,0-5.229,1.37-6.446,3.856c-0.718,1.466-1.037,4.277,0.427,7.374c1.569,3.32,5.55,7.777,15.602,10.155
				c8.202,1.94,15.635,2.883,22.725,2.883c0.001,0,0.002,0,0.002,0c7.119,0,13.988-0.937,21.003-2.866
				c10.121-2.396,14.103-6.853,15.672-10.174c1.464-3.097,1.145-5.907,0.427-7.373c-1.219-2.487-3.508-3.856-6.446-3.856
				c-2.132,0-4.481,0.712-6.986,2.117c-6.51,3.651-15.213,5.663-24.508,5.663c-9.278,0-17.973-2.011-24.484-5.663
				C33.822,26.131,31.472,25.419,29.341,25.419z"/>
		</g>
		<g>
			<path fill="#555555" d="M33.831,26.221c-1.093,0-1.986-0.88-2-1.976c-0.002-0.212-0.019-5.24,3.718-8.379
				c2.61-2.194,6.266-2.871,10.858-2.01c0.21-0.009,0.694-0.301,1.141-1.374c1.439-3.451,3.997-5.861,6.22-5.861
				c0.962,0,3.514,0,6.787-1.169c0.804-0.287,1.527-0.8,2.292-1.343c1.988-1.41,4.994-3.539,9.27,0.483
				c2.128,2.003,3.285,4.017,4.133,5.487c1.133,1.97,1.37,2.157,1.979,2.164c0.023,0,0.047,0,0.069,0c2.37,0,3.851-1.39,3.912-1.45
				l0.427-0.407l0.596-0.127c0.178-0.035,4.438-0.815,7.613,2.038c2.441,2.193,3.475,5.773,3.068,10.64
				c-0.092,1.101-1.061,1.918-2.159,1.827c-1.101-0.092-1.919-1.059-1.827-2.159c0.293-3.503-0.314-6.039-1.756-7.333
				c-1.255-1.128-2.953-1.182-3.736-1.133c-0.984,0.759-3.15,2.104-6.139,2.104c-0.038,0-0.074,0-0.113,0
				c-3.021-0.035-4.285-2.231-5.4-4.169c-0.801-1.393-1.709-2.972-3.407-4.569c-1.89-1.78-2.29-1.495-4.214-0.132
				c-0.908,0.644-1.938,1.374-3.26,1.846c-3.807,1.36-6.796,1.401-8.022,1.403c-0.435,0.17-1.718,1.192-2.638,3.4
				c-1.51,3.624-4.273,4.05-5.595,3.762c-3.349-0.623-5.879-0.236-7.523,1.146c-2.268,1.905-2.292,5.236-2.292,5.269
				c0.013,1.104-0.872,2.011-1.976,2.024C33.847,26.221,33.839,26.221,33.831,26.221z"/>
		</g>
	</g>
</g>
</svg>
