<?xml version="1.0" encoding="utf-8"?>
<!-- Generator: Adobe Illustrator 16.0.0, SVG Export Plug-In . SVG Version: 6.00 Build 0)  -->
<!DOCTYPE svg PUBLIC "-//W3C//DTD SVG 1.1//EN" "http://www.w3.org/Graphics/SVG/1.1/DTD/svg11.dtd">
<svg version="1.1" id="Layer_1" xmlns="http://www.w3.org/2000/svg" xmlns:xlink="http://www.w3.org/1999/xlink" x="0px" y="0px"
	 width="190px" height="190px" viewBox="0 0 190 190" enable-background="new 0 0 190 190" xml:space="preserve">
<g>
	<path fill="#FFFFFF" d="M153.352,28.672c9.275,8.281,16.897,18.426,22.237,29.654c0.317,0.3,0.709,0.921,1.144,1.726
		c0.435,0.803,0.923,1.786,1.347,2.849c0.432,1.056,0.912,2.147,1.319,3.172c0.396,1.028,0.784,1.966,1.156,2.675
		c-0.383-1.253-0.718-2.494-1.13-3.688c-0.426-1.19-0.845-2.359-1.259-3.513c-0.463-1.137-0.939-2.252-1.408-3.362
		c-0.229-0.559-0.486-1.101-0.751-1.638c-0.264-0.539-0.525-1.077-0.789-1.614c-1.875-3.729-4.019-7.312-6.609-10.895
		c3.676,5.038,6.823,10.469,9.395,16.167c-0.454-0.979-0.91-1.965-1.369-2.957c-0.503-0.968-1.011-1.944-1.519-2.925
		c-0.489-0.991-1.085-1.931-1.634-2.902c-0.282-0.482-0.563-0.966-0.844-1.451c-0.286-0.482-0.603-0.947-0.906-1.422
		c-0.62-0.941-1.204-1.911-1.865-2.836c-0.662-0.924-1.325-1.851-1.992-2.781c-1.402-1.808-2.81-3.639-4.362-5.357l-1.147-1.309
		c-0.388-0.433-0.801-0.842-1.202-1.265l-1.213-1.258c-0.405-0.42-0.81-0.841-1.241-1.235c-0.854-0.799-1.707-1.6-2.563-2.403
		c-0.892-0.759-1.785-1.52-2.681-2.282c-3.638-2.976-7.525-5.67-11.594-8.019c-0.746-0.424-1.465-0.869-2.172-1.332l-1.049-0.707
		c-0.356-0.227-0.712-0.454-1.069-0.681c-0.711-0.465-1.428-0.935-2.154-1.411c-0.725-0.487-1.5-0.905-2.285-1.363
		c-3.132-1.822-6.874-3.408-11.785-4.076c5.863,1.905,11.549,4.437,16.928,7.529C143.664,20.85,148.709,24.538,153.352,28.672z"/>
	<path fill="#FFFFFF" d="M183.975,91.479c0.017,0.303,0.02,0.607,0.03,0.912c0.039,1.22,0.078,2.451,0.117,3.701
		c0.016-1.129-0.006-2.324-0.048-3.554c-0.012-0.307-0.023-0.618-0.035-0.929c-0.029-0.311-0.058-0.625-0.086-0.939
		c-0.063-0.628-0.129-1.263-0.191-1.899c0.046,0.599,0.093,1.199,0.141,1.802L183.975,91.479z"/>
	<path fill="#FFFFFF" d="M91.495,10.546c-6.442,0.396-12.802,1.602-18.817,3.226c11.094-2.919,22.506-3.515,33.446-2.079
		c1.472,0.121,2.933,0.168,4.373,0.333C104.433,10.598,97.927,10.148,91.495,10.546z"/>
	<path fill="#FFFFFF" d="M136.909,22.966c-4.744-2.818-9.894-5.115-15.198-6.774c10.73,3.541,20.44,9.392,28.049,16.55
		C145.998,29.111,141.658,25.78,136.909,22.966z"/>
	<path fill="#FFFFFF" d="M185.195,99.915c-0.086,0.685-0.231,1.395-0.36,2.123c-0.129,0.721-0.262,1.466-0.395,2.227
		c-0.115,0.757-0.287,1.524-0.454,2.302c-0.164,0.777-0.331,1.566-0.498,2.363l-0.129,0.597l-0.149,0.596
		c-0.103,0.394-0.206,0.793-0.309,1.192c-0.206,0.797-0.412,1.594-0.618,2.392c-0.489,1.579-0.955,3.16-1.479,4.683
		c-0.282,0.757-0.562,1.503-0.84,2.239c-0.28,0.733-0.545,1.458-0.867,2.146c-0.314,0.688-0.618,1.362-0.917,2.02
		c-0.302,0.654-0.597,1.286-0.937,1.878c-0.656,1.188-1.257,2.284-1.882,3.234c0.009-0.04,0.06-0.22,0.115-0.473
		c0.064-0.291,0.149-0.678,0.231-1.067c0.159-0.726,0.318-1.45,0.335-1.535c-0.347,0.386-0.781,1.054-1.266,1.886
		c-0.483,0.836-1.106,1.802-1.693,2.826c-0.309,0.502-0.587,1.033-0.918,1.537c-0.024,0.036-0.052,0.08-0.077,0.119
		c0.45-1.416,0.862-2.848,1.235-4.284c0.111-0.236,0.218-0.477,0.321-0.72c0.396-0.927,0.802-1.872,1.214-2.823
		c1.539-3.847,2.92-7.929,3.804-11.647c0.128-0.463,0.228-0.922,0.313-1.372c0.089-0.454,0.181-0.896,0.266-1.328
		c0.163-0.871,0.351-1.699,0.454-2.489c0.206-1.578,0.378-2.958,0.434-4.069c0.047-2.233-0.149-3.357-0.732-2.782
		c-0.919,0.909-1.737,5.018-3.23,10.441c0.169-2.213,0.24-4.438,0.279-6.655c-0.014-0.832-0.027-1.663-0.039-2.497l-0.017-1.247
		l-0.068-1.248c-0.048-0.832-0.091-1.664-0.137-2.495c-0.069-0.833-0.159-1.663-0.235-2.497c-0.645-6.647-2.094-13.243-4.175-19.688
		c-1.642-5.828-4.139-11.502-7.233-16.836c-3.118-5.327-6.85-10.365-11.202-14.83c-4.335-4.472-9.165-8.469-14.375-11.806
		c-5.219-3.324-10.742-6.09-16.446-8.191c-5.707-2.089-11.558-3.598-17.418-4.537c-5.867-0.909-11.739-1.269-17.52-1.163
		c-6.896,0.113-13.633,0.931-20.16,2.223c1.333-0.661,0.565-0.464-0.665-0.116c-0.69,0.196-1.518,0.446-2.2,0.618
		c-0.673,0.201-1.196,0.329-1.287,0.235c0.271-0.257,0.592-0.527,0.952-0.814c0.364-0.262,0.772-0.532,1.218-0.815
		c0,0,0.001,0,0.001,0c1.396-0.588,2.79-1.185,4.223-1.677l1.262-0.465c0.419-0.158,0.841-0.312,1.271-0.438l2.565-0.811
		c-0.458,0.124-0.907,0.247-1.366,0.372c-2.76,0.792-5.381,1.799-7.719,2.87c0.383-0.242,0.793-0.492,1.216-0.742
		c0.254-0.15,0.515-0.299,0.776-0.453c0.27-0.138,0.544-0.279,0.824-0.421c0.558-0.283,1.132-0.566,1.703-0.853
		c0.579-0.283,1.158-0.587,1.745-0.833c1.175-0.511,2.329-1.034,3.388-1.514c-6.197,1.423-12.226,3.628-17.934,6.501
		c-1.446,0.686-2.818,1.504-4.212,2.286c-0.707,0.377-1.372,0.819-2.05,1.244l-2.028,1.281c-0.661,0.451-1.308,0.918-1.964,1.377
		c-0.648,0.472-1.325,0.901-1.943,1.407l-1.891,1.479c-0.313,0.249-0.635,0.489-0.939,0.746l-0.91,0.785
		c-4.858,4.165-9.267,8.869-13.04,14.037c-3.762,5.175-6.927,10.772-9.418,16.647c3.954-8.761,9.581-16.511,16.026-22.652
		c-2.813,3.02-5.438,6.223-7.835,9.607c-2.351,3.413-4.478,6.99-6.36,10.708c-1.857,3.73-3.409,7.62-4.722,11.6l-0.917,3.011
		c-0.283,1.012-0.519,2.037-0.78,3.057c-0.12,0.511-0.267,1.017-0.369,1.536l-0.305,1.548l-0.309,1.552l-0.15,0.776l-0.115,0.785
		l-0.386,3.354l-0.223,3.371L12.5,91.682c-0.013,0.278-0.008,0.562-0.018,0.84l-0.025,1.685l-0.026,1.688
		c0,0.561,0.035,1.123,0.051,1.685l0.056,1.681c0.025,0.561,0.025,1.125,0.085,1.682l0.283,3.35
		c0.012,0.123,0.025,0.244,0.045,0.366c-0.262,2.799-0.034,5.898,1.517,9.168c0.001,0.004,0.001,0.008,0.003,0.011
		c1.702,7.783,4.563,15.276,8.285,22.27c-0.476-0.604-0.932-1.287-1.407-2.007c-0.467-0.729-0.974-1.487-1.398-2.324
		c2.762,5.661,6.171,10.983,10.066,15.907l0.978,1.053c0.295,0.327,0.6,0.654,0.918,0.952c0.202,0.25,0.412,0.498,0.626,0.743
		c-0.386-0.353-0.785-0.703-1.133-1.004c3.496,4.181,7.372,8.027,11.549,11.475c-2.453-1.898-4.824-3.914-7.102-6.032
		c-1.218-1.145-2.411-2.316-3.577-3.512c-0.295-0.37-0.583-0.742-0.865-1.115c-0.438-0.528-0.687-0.931-0.845-1.188
		c-0.154-0.258-0.198-0.382-0.159-0.407c0.077-0.056,0.485,0.293,0.999,0.78c-0.458-0.578-0.922-1.162-1.389-1.744l-1.12-1.228
		c-0.36-0.416-0.703-0.85-1.059-1.277l-1.052-1.291l-0.522-0.657l-0.489-0.678c-0.652-0.908-1.304-1.821-1.93-2.757
		c-0.596-0.956-1.179-1.926-1.753-2.907c-2.423-4.451-4.413-9.104-5.961-13.869c-0.317-0.918-0.661-1.832-0.913-2.774
		c0.149,0.463,0.282,0.939,0.462,1.395c-3.752-12.267-4.472-25.199-2.517-37.521c0.086-0.926,0.279-1.84,0.421-2.758l0.227-1.376
		c0.078-0.462,0.154-0.922,0.262-1.372c0.398-1.818,0.763-3.649,1.29-5.438l0.365-1.351l0.184-0.673l0.214-0.669l0.866-2.658
		l0.219-0.665l0.249-0.657l0.502-1.308c0.339-0.87,0.643-1.753,1.038-2.603c-0.382,0.759-0.685,1.556-1.017,2.342
		c-0.326,0.792-0.659,1.578-0.973,2.375c-0.284,0.806-0.571,1.612-0.858,2.423l-0.429,1.213c-0.133,0.408-0.248,0.824-0.377,1.231
		l-0.733,2.475c-0.245,0.827-0.421,1.671-0.635,2.504l-0.31,1.256c-0.107,0.42-0.201,0.841-0.279,1.265l-0.488,2.543
		c-0.077,0.425-0.176,0.845-0.231,1.269l-0.185,1.282l-0.364,2.565l-0.249,2.573c-0.073,0.858-0.188,1.711-0.209,2.573
		c-0.039,0.857-0.082,1.72-0.12,2.578c-0.018,0.429-0.056,0.857-0.052,1.286v1.287c0,0.858-0.004,1.716-0.004,2.569
		c0.013,0.857,0.069,1.706,0.099,2.561c-1.303-9.027-0.806-19.221,1.78-29.076c-1.81,6.329-2.8,12.959-3.041,19.602
		c-0.042,0.635-0.082,1.265-0.125,1.896c-0.018,0.313-0.038,0.629-0.06,0.942c-0.004,0.314-0.009,0.626-0.018,0.936
		c-0.025,1.248-0.051,2.471-0.072,3.646c0.021,1.175,0.034,2.303,0.026,3.356c-0.026,1.064,0.042,2.042,0.03,2.938
		c-0.673-6.525-0.682-12.006-0.587-17.18c-0.965,11.228,0.167,22.862,3.679,34.046c0.313,0.948,0.592,1.914,0.922,2.844
		c-0.343-0.938-0.613-1.896-0.922-2.844c-1.943-6.066-3.486-12.504-4.168-19.064C8.353,98.243,8.495,91.59,9.666,85.33
		c-0.026,0.746-0.09,1.485-0.1,2.234c-0.016,0.747-0.03,1.497-0.046,2.255c0.446-5.085,1.278-10.107,2.59-14.983
		c1.299-4.876,3.011-9.615,5.095-14.157c2.08-4.541,4.537-8.891,7.324-12.998c2.804-4.096,5.953-7.942,9.378-11.506
		c-4.172,3.329-8.427,8.646-11.964,14.582c-3.551,5.948-6.325,12.483-8.753,18.131c3.183-10.438,8.636-20.495,15.945-29.166
		c7.291-8.684,16.408-15.979,26.558-21.266c10.147-5.314,21.305-8.595,32.532-9.782c5.618-0.597,11.245-0.708,16.806-0.331
		c5.567,0.386,11.057,1.247,16.391,2.534l-2.799-0.818c-0.94-0.249-1.889-0.459-2.837-0.691c-1.882-0.494-3.808-0.789-5.715-1.163
		c-3.849-0.592-7.724-1.063-11.627-1.174c-3.898-0.206-7.813-0.052-11.737,0.209L83.77,7.537c-0.489,0.052-0.986,0.086-1.471,0.159
		L80.832,7.91c-0.978,0.146-1.959,0.275-2.937,0.438c-0.777,0.15-1.548,0.3-2.33,0.451c1.3-0.266,2.659-0.605,4.079-0.854
		c0.815-0.167,1.643-0.334,2.475-0.501c0.832-0.164,1.677-0.275,2.513-0.412c-5.412,0.711-10.605,1.848-15.704,3.452
		c-5.099,1.6-10.1,3.701-15.07,6.412c0.018-0.034,0.056-0.068,0.09-0.103c6.36-3.367,13.067-6.072,19.993-8.002
		c6.93-1.899,14.053-3.07,21.21-3.521c1.081-0.086,2.057-0.073,2.937-0.108c0.881-0.03,1.665-0.06,2.357-0.103
		c1.393-0.047,2.416-0.077,3.145-0.171c1.451-0.176,1.687-0.476,1.145-0.814c-0.543-0.343-1.868-0.721-3.515-1.042
		c-0.822-0.15-1.729-0.236-2.656-0.317c-0.921-0.069-1.864-0.142-2.769-0.125c-18.11,0.185-35.358,5.309-49.828,14.333
		C38.711,21.406,32.192,26.929,26.515,33.2c-1.376,1.604-2.787,3.182-4.047,4.88l-0.97,1.256l-0.48,0.63l-0.455,0.652l-1.81,2.612
		c-0.6,0.87-1.128,1.788-1.694,2.684L16.23,47.27c-0.278,0.451-0.519,0.927-0.78,1.386c-0.506,0.931-1.013,1.865-1.519,2.795
		c-0.463,0.957-0.922,1.917-1.381,2.874l-0.605,1.368l-0.553,1.395L10.3,59.869L9.322,62.7L8.838,64.11l-0.425,1.437l-0.85,2.869
		l-0.72,2.904l-0.356,1.449c-0.111,0.484-0.197,0.978-0.3,1.467l-0.579,2.93c-1.364,7.852-1.767,15.845-1.21,23.75
		c0.159,4.472,0.751,9.838,1.767,14.648c0.275,1.2,0.544,2.368,0.803,3.485c0.309,1.107,0.617,2.162,0.909,3.148
		c0.149,0.49,0.279,0.969,0.433,1.415c0.163,0.451,0.317,0.876,0.463,1.283c0.296,0.807,0.57,1.522,0.815,2.131
		c0.321,0.798,0.733,1.569,1.102,2.351c0.381,0.78,0.759,1.561,1.14,2.341c0.417,0.764,0.832,1.527,1.249,2.294
		c0.429,0.76,0.818,1.536,1.286,2.274c0.618,0.993,1.206,2.002,1.832,2.99c0.347,0.916,0.776,1.825,1.261,2.645
		c9.065,15.068,21.609,27.304,36.25,35.272c7.304,4.005,15.147,6.882,23.235,8.59c2.028,0.381,4.057,0.78,6.111,1.008l1.54,0.184
		l0.768,0.089l0.772,0.062l3.096,0.21c1.029,0.064,2.067,0.051,3.101,0.073c1.033,0.008,2.067,0.017,3.101-0.043
		c1.033-0.043,2.067-0.1,3.101-0.159c1.032-0.094,2.063-0.205,3.09-0.317l1.441-0.24l1.438-0.286l2.854-0.579l2.836-0.688
		l1.411-0.344l1.398-0.393l2.786-0.799l2.754-0.903l1.368-0.46c0.459-0.154,0.904-0.334,1.354-0.501l2.696-1.025
		c7.135-2.878,13.866-6.544,20.024-10.936c3.675-2.191,7.891-5.185,11.411-8.319c0.876-0.789,1.717-1.574,2.517-2.333
		c0.77-0.786,1.493-1.553,2.162-2.277c0.331-0.36,0.656-0.709,0.948-1.055c0.287-0.356,0.563-0.694,0.82-1.018
		c0.513-0.647,0.954-1.239,1.312-1.753c1.496-2.458,2.863-4.991,4.104-7.582c3.309-4.593,6.174-9.406,8.589-14.323
		c2.822-5.764,5.03-11.673,6.643-17.561c1.625-5.889,2.693-11.742,3.354-17.425C185.617,97.256,185.401,98.543,185.195,99.915z
		 M53.849,150.096L53.849,150.096c-1.035-0.738-2.078-1.467-3.067-2.267c-0.191-0.152-0.387-0.3-0.583-0.449
		c1.513,0.93,3.055,1.804,4.606,2.645c0.221,0.111,0.444,0.221,0.665,0.33c-0.003,0-0.006,0-0.01,0
		c-0.103-0.003-0.206-0.012-0.309-0.021C54.737,150.283,54.304,150.201,53.849,150.096z M53.614,150.035
		C53.614,150.035,53.614,150.035,53.614,150.035l-0.002-0.001C53.613,150.034,53.614,150.035,53.614,150.035z M41.879,54.249
		c-3.279,3.984-6.187,8.286-8.653,12.865c-2.308,4.295-4.217,8.832-5.653,13.537c-1.425,4.707-2.375,9.578-2.799,14.494
		c-0.396-0.982-0.593-1.93-0.73-2.84c-0.132-0.91-0.174-1.782-0.098-2.61c0.064-0.831,0.197-1.622,0.375-2.378
		c0.194-0.755,0.455-1.473,0.725-2.165c1.089-2.779,2.679-5.038,3.312-7.672c1.622-7.262,4.607-14.283,8.617-20.45
		c3.556-5.568,7.896-10.452,12.522-14.62c-3.543,3.217-6.755,6.769-9.581,10.599c2.436-3.298,5.048-6.067,7.923-8.543
		c1.798-1.541,3.7-2.975,5.769-4.305C49.144,44.271,45.194,49.008,41.879,54.249z M53.288,168.252
		c4.094,2.505,8.4,4.615,12.822,6.338c2.045,0.803,4.117,1.521,6.21,2.161c1.805,0.601,3.632,1.149,5.477,1.643
		c-0.421-0.021-0.764-0.013-1.103,0c0.493,0.106,0.991,0.208,1.489,0.317c0.497,0.108,0.994,0.223,1.5,0.3
		c0.484,0.07,0.965,0.138,1.445,0.209c0.189,0.05,0.382,0.091,0.57,0.135c-0.669-0.111-1.343-0.232-2.016-0.344
		c-0.558-0.068-1.102-0.188-1.651-0.295c-0.549-0.104-1.094-0.211-1.638-0.318c-0.674,0.005-1.42-0.043-2.719-0.595
		c-0.626-0.155-1.244-0.31-1.853-0.46c-0.304-0.076-0.609-0.154-0.91-0.231c-0.299-0.09-0.595-0.18-0.887-0.271
		c-1.167-0.368-2.312-0.707-3.383-1.089c-1.063-0.408-2.081-0.81-3.023-1.201c-0.481-0.189-0.922-0.412-1.355-0.626
		c-0.429-0.215-0.841-0.425-1.23-0.63c-2.989-1.557-5.841-3.251-8.637-4.923c-0.683-0.438-1.364-0.879-2.046-1.317
		c-0.433-0.287-0.874-0.559-1.302-0.841c0.27,0.142,0.53,0.271,0.779,0.386c0.626,0.283,1.185,0.473,1.634,0.508
		C52.065,167.497,52.674,167.879,53.288,168.252z M164.089,69.274c0.479,1.072,0.873,2.187,1.302,3.285
		c0.399,0.883,0.726,1.801,1.095,2.688c0.463,0.455,0.858,1.012,0.835,2.273c0.751,2.109,1.309,4.202,1.716,6.145
		c0.173,0.978,0.31,1.917,0.408,2.805c0.098,0.888,0.082,1.728,0.056,2.505c-0.117,2.95-0.257,5.815-0.334,8.629
		c-0.04,0.702-0.077,1.4-0.117,2.101c-0.036,0.699-0.043,1.394-0.11,2.084c-0.12,1.381-0.168,2.759-0.348,4.112
		c-0.575,5.417-1.684,10.683-4.006,15.216c-1.038,2.136-1.239,1.406-1.175,0.143c-0.229,0.591-0.454,1.187-0.687,1.783
		c-0.779,3.739-1.978,7.483-3.966,10.888c-2.315,3.724-4.979,7.201-7.915,10.379c-0.541,0.644-1.069,1.3-1.657,1.905
		c0.267-0.327,0.553-0.645,0.802-0.982c-7.672,8.001-17.141,13.898-27.202,17.482c-0.72,0.343-1.47,0.604-2.207,0.901
		c-0.747,0.283-1.48,0.604-2.239,0.849c-1.514,0.506-3.02,1.042-4.567,1.444c-3.074,0.897-6.228,1.52-9.404,1.981
		c0.729-0.025,1.458-0.124,2.187-0.201c0.729-0.082,1.463-0.154,2.191-0.248c0.729-0.122,1.458-0.24,2.188-0.361l1.095-0.184
		c0.362-0.068,0.724-0.154,1.084-0.231l2.175-0.477c0.725-0.163,1.437-0.382,2.152-0.569c0.716-0.206,1.445-0.37,2.147-0.613
		l2.124-0.695c5.665-1.883,11.063-4.498,16.211-7.462c-3.419,3.144-7.506,5.966-12.03,8.25c-2.864,1.133-5.807,2.093-8.796,2.888
		c-0.798,0.201-1.588,0.418-2.38,0.611c-0.797,0.168-1.59,0.336-2.385,0.504c-0.398,0.081-0.792,0.171-1.188,0.244l-1.195,0.188
		c-0.798,0.128-1.592,0.257-2.382,0.387c-1.355,0.179-2.724,0.395-4.116,0.539c-0.699,0.049-1.407,0.099-2.118,0.15
		c-0.708,0.051-1.425,0.108-2.154,0.099c-1.44,0.035-2.723,0.597-3.408,0.704c-0.94-0.107-1.874-0.211-2.826-0.317
		c-0.236-0.025-0.472-0.051-0.708-0.078c-0.24-0.038-0.477-0.076-0.712-0.115c-0.476-0.073-0.956-0.145-1.44-0.223
		c-0.485-0.071-0.974-0.146-1.467-0.22c-0.493-0.085-0.991-0.191-1.497-0.286c-0.506-0.095-1.021-0.189-1.54-0.287
		c-0.261-0.048-0.522-0.096-0.788-0.144c-0.266-0.059-0.532-0.119-0.798-0.184c-0.343,0.004-0.87-0.055-1.484-0.11
		c-0.612-0.065-1.325-0.086-2.01-0.139c-0.755-0.376-1.562-0.741-2.411-1.089c-5.334-1.341-10.433-3.31-15.236-5.745l-0.014,0.055
		c-4.841-2.302-10.317-5.981-14.842-9.963c-0.57-0.491-1.136-0.98-1.694-1.461c-0.536-0.502-1.067-0.995-1.586-1.479
		c-0.774-0.681-1.48-1.385-2.17-2.054c-0.735-0.842-1.482-1.668-2.158-2.558c-0.689-0.883-1.417-1.732-2.053-2.659
		c0.06,0.39-0.079,0.61-0.218,0.826c0.312,0.285,0.645,0.608,0.979,0.95c0.241,0.251,0.479,0.518,0.715,0.788
		c-0.206-0.196-0.411-0.39-0.612-0.573c-0.39-0.343-0.75-0.681-1.089-1.003c-0.003-0.003-0.005-0.005-0.007-0.008
		c-0.738-0.994-1.45-2.004-2.134-3.025c-0.147-0.296-0.293-0.599-0.452-0.9c-0.262-0.515-0.541-1.033-0.833-1.561
		c-0.291-0.527-0.553-1.09-0.849-1.638c-1.686-2.569-3.092-5.305-4.456-8.06l-0.926-2.113l-0.468-1.055
		c-0.145-0.357-0.274-0.721-0.412-1.081l-0.828-2.158c-0.257-0.724-0.476-1.465-0.72-2.199c-0.331-0.44-0.408,0.048-0.549,0.16
		l-0.257-0.996l-0.129-0.502l-0.099-0.506c-0.129-0.672-0.262-1.347-0.39-2.024l-0.197-1.011l-0.142-1.025l-0.287-2.042
		c-0.814-4.15-1.257-8.4-1.313-12.699c0-0.02,0-0.039,0-0.061c0.679,5.915,1.962,11.695,3.873,17.214
		c0.81,3.431,2.129,7.491,3.747,11.035c0.413,0.879,0.827,1.735,1.234,2.549c0.436,0.799,0.867,1.554,1.281,2.255
		c0.209,0.348,0.405,0.686,0.613,1c0.213,0.31,0.417,0.605,0.612,0.886c0.395,0.558,0.763,1.042,1.094,1.442
		c3.828,4.024,8.121,7.555,12.665,10.606c0.395,0.27,0.798,0.526,1.2,0.788c1.502,1.318,3.07,2.479,4.624,3.413
		c-0.402-0.099-0.813-0.223-1.236-0.354c-0.249-0.082-0.502-0.164-0.759-0.25c-0.249-0.095-0.498-0.197-0.755-0.3
		c-1.003-0.429-2.076-0.87-3.088-1.367c-1.012-0.504-2.028-0.986-2.998-1.411c3.581,4.107,7.74,7.757,12.295,10.84
		c1.123,0.799,2.315,1.483,3.495,2.206c0.583,0.369,1.192,0.68,1.801,1.011l1.823,0.976c0.617,0.303,1.244,0.59,1.87,0.882
		c0.625,0.286,1.239,0.604,1.886,0.853l1.917,0.78c0.317,0.126,0.634,0.266,0.96,0.383l0.978,0.339
		c5.201,1.84,10.622,3.074,16.112,3.614c5.484,0.528,11.021,0.408,16.459-0.339c-8.237,0.623-16.412-0.582-23.471-3.413
		c3.379,0.845,6.828,1.479,10.313,1.878c3.496,0.356,7.02,0.484,10.563,0.37c3.542-0.134,7.085-0.559,10.605-1.201l2.629-0.546
		c0.874-0.197,1.741-0.439,2.612-0.664c0.433-0.115,0.873-0.218,1.303-0.352l1.29-0.401l1.292-0.409l0.647-0.201l0.634-0.236
		l2.634-1.192l2.573-1.312c0.866-0.417,1.677-0.937,2.517-1.403l1.243-0.716c0.413-0.245,0.812-0.515,1.215-0.771
		c0.802-0.526,1.626-1.017,2.404-1.569l2.339-1.669c1.51-1.17,3.035-2.324,4.456-3.601c5.789-4.98,10.711-10.878,14.786-17.279
		c-0.12,0.682-0.326,1.376-0.57,2.093c-0.254,0.716-0.532,1.466-0.914,2.183c2.903-4.576,5.318-9.421,7.256-14.435
		c0.155-0.818,0.349-1.621,0.455-2.444l0.338-2.453c0.03,0.617-0.104,2.054-0.106,3.114c2.804-7.833,4.399-16.059,4.657-24.277
		c0.279-8.226-0.918-16.422-3.327-24.098c0.438,1.214,1.008,1.694,1.53,2.166c-0.306-0.823-0.557-1.668-0.88-2.491
		c-0.492-1.085-0.947-2.179-1.443-3.243c-0.521-1.055-1.004-2.114-1.485-3.147C163.066,67.16,163.587,68.21,164.089,69.274z
		 M48.686,32.003c0.587-0.446,1.183-0.9,1.801-1.368c0.308-0.232,0.617-0.468,0.935-0.708c0.32-0.227,0.656-0.446,0.99-0.678
		c0.562-0.381,1.141-0.776,1.729-1.17c0.021-0.014,0.04-0.028,0.061-0.043c0.647-0.407,1.293-0.813,1.951-1.227
		c-0.024,0.011-0.048,0.024-0.071,0.036c0.198-0.123,0.4-0.244,0.598-0.371c0.376-0.236,0.759-0.476,1.145-0.716
		c0.386-0.236,0.79-0.45,1.192-0.682c0.806-0.459,1.625-0.927,2.466-1.402c0.854-0.451,1.729-0.91,2.615-1.377
		c0.224-0.12,0.447-0.24,0.669-0.36c0.228-0.107,0.459-0.219,0.686-0.33c0.284-0.142,0.571-0.279,0.857-0.416
		c0.04-0.008,0.074-0.017,0.112-0.025c1.467-0.318,2.977-0.567,4.456-0.85c1.505-0.206,2.998-0.424,4.464-0.566
		c0.742-0.055,1.467-0.107,2.188-0.149c0.716-0.039,1.415-0.086,2.114-0.064c0.695,0.004,1.373,0.017,2.029,0.042
		c0.661,0.025,1.299,0.06,1.921,0.146c1.244,0.158,2.393,0.338,3.426,0.622c0,0-0.167,0.073-0.412,0.21
		c-0.244,0.128-0.571,0.309-0.896,0.485c-0.643,0.351-1.282,0.708-1.282,0.708c0.475,0.287,1.205,0.501,2.071,0.669
		c0.867,0.163,1.878,0.365,2.916,0.506c0.807,0.103,1.63,0.24,2.424,0.381c0.006,0.001,0.014,0.002,0.021,0.004
		c-1.76,0.13-3.502,0.333-5.222,0.61c0.004-0.246-0.104-0.475-0.314-0.682c-0.529-0.525-1.677-0.914-3.067-1.096
		c-1.38-0.147-2.995-0.068-4.408,0.278c-12.645,3.202-24.215,9.079-33.625,17.196c-0.007,0.004-0.014,0.008-0.021,0.012
		c-0.056,0.025-0.107,0.056-0.164,0.086c-0.399,0.235-0.792,0.472-1.179,0.703c-0.768,0.459-1.51,0.896-2.145,1.261
		c-1.227,0.771-2.067,1.213-1.986,0.861C41.005,39.216,44.093,35.648,48.686,32.003z M117.335,181.092
		c-1.016,0.438-2.016,0.778-3.006,0.981c-0.986,0.215-1.946,0.353-2.882,0.434c-0.938,0.063-1.86,0.046-2.754,0.014
		c-1.008-0.04-1.985-0.135-2.941-0.241c0.361-0.052,0.716-0.106,1.076-0.155l2.586-0.368l2.569-0.492
		c0.853-0.165,1.711-0.319,2.557-0.541c0.896-0.219,1.791-0.429,2.683-0.661c1.073-0.198,2.137-0.415,3.196-0.655
		C119.397,180.136,118.351,180.641,117.335,181.092z"/>
	<path fill="#FFFFFF" d="M119.493,17.412l-2.638-0.714c-0.886-0.215-1.777-0.394-2.665-0.593l-1.335-0.292
		c-0.443-0.093-0.896-0.154-1.343-0.233c8.092,1.671,15.836,4.61,22.958,8.559c3.547,2.002,6.954,4.224,10.172,6.686
		c3.195,2.491,6.215,5.189,9.037,8.07c-5.701-6.572-13.029-12.4-21.397-16.674c-3.312-1.531-6.684-2.949-10.175-4.017l-1.298-0.422
		C120.377,17.637,119.931,17.536,119.493,17.412z"/>
</g>
</svg>
